<svg width="390" height="390" viewBox="0 0 390 390" fill="none" xmlns="http://www.w3.org/2000/svg">
<circle cx="195" cy="195" r="195" fill="black"/>
<path d="M163.56 94.0779V259.258L135.872 309H131.263H130.8V94.0779H108.05H103.129L97.5026 95.0164L92.8135 95.9549L88.1245 98.7705L82.4977 103.463L78.7465 107.217L71.65 116.602L58.91 134.434L58 80H240L221.8 121.295L217.541 113.787L212.7 108.156L206.287 101.586L202.421 98.7705L198.14 96.8934L189.407 95.0164L180.85 94.0779H163.56Z" fill="white"/>
<path d="M307.34 80H274.58L169.02 309H331V252.689L318.26 270.52L311.321 278.967L303.704 284.598L298.077 288.352L292.45 291.168L284.948 293.045L277.31 293.984H207.24L307.34 80Z" fill="white"/>
<path d="M131.263 309H135.872M135.872 309L163.56 259.258V94.0779H180.85L189.407 95.0164L198.14 96.8934L202.421 98.7705L206.287 101.586L212.7 108.156L217.541 113.787L221.8 121.295L240 80H58L58.91 134.434L71.65 116.602L78.7465 107.217L82.4977 103.463L88.1245 98.7705L92.8136 95.9549L97.5026 95.0164L103.129 94.0779H108.05H130.8V309H135.872ZM274.58 80H307.34L207.24 293.984H277.31L284.948 293.045L292.45 291.168L298.077 288.352L303.704 284.598L311.321 278.967L318.26 270.52L331 252.689V309H169.02L274.58 80Z" stroke="white"/>
</svg>
