<svg width="401" height="407" viewBox="0 0 401 407" fill="none" xmlns="http://www.w3.org/2000/svg">
<ellipse cx="200.378" cy="203.5" rx="200.378" ry="203.5" fill="black"/>
<ellipse cx="200" cy="203.5" rx="187" ry="193.5" fill="white"/>
<ellipse cx="200.5" cy="204" rx="175.5" ry="180" fill="black"/>
<path d="M183.281 75.5V163.5L168.519 190H166.061H165.814V75.5H153.685H151.061L148.061 76L145.561 76.5L143.061 78L140.061 80.5L138.061 82.5L134.278 87.5L127.485 97L127 68H224.036L214.332 90L212.061 86L209.48 83L206.061 79.5L204 78L201.717 77L197.061 76L192.499 75.5H183.281Z" fill="white"/>
<path d="M259.939 68H242.472L186.192 190H272.553V160L265.761 169.5L262.061 174L258 177L255 179L252 180.5L248 181.5L243.928 182H206.569L259.939 68Z" fill="white"/>
<path d="M166.061 190H168.519M168.519 190L183.281 163.5V75.5H192.499L197.061 76L201.717 77L204 78L206.061 79.5L209.48 83L212.061 86L214.332 90L224.036 68H127L127.485 97L134.278 87.5L138.061 82.5L140.061 80.5L143.061 78L145.561 76.5L148.061 76L151.061 75.5H153.685H165.814V190H168.519ZM242.472 68H259.939L206.569 182H243.928L248 181.5L252 180.5L255 179L258 177L262.061 174L265.761 169.5L272.553 160V190H186.192L242.472 68Z" stroke="white"/>
<path d="M47.125 223.156V212H99.6875V223.156H80.0938V276H66.7188V223.156H47.125ZM108.344 276V212H133.594C138.427 212 142.552 212.865 145.969 214.594C149.406 216.302 152.021 218.729 153.812 221.875C155.625 225 156.531 228.677 156.531 232.906C156.531 237.156 155.615 240.812 153.781 243.875C151.948 246.917 149.292 249.25 145.813 250.875C142.354 252.5 138.167 253.312 133.25 253.312H116.344V242.437H131.063C133.646 242.437 135.792 242.083 137.5 241.375C139.208 240.667 140.479 239.604 141.313 238.188C142.167 236.771 142.594 235.01 142.594 232.906C142.594 230.781 142.167 228.99 141.313 227.531C140.479 226.073 139.198 224.969 137.469 224.219C135.76 223.448 133.604 223.062 131 223.062H121.875V276H108.344ZM142.906 246.875L158.812 276H143.875L128.313 246.875H142.906ZM177.125 276H162.625L184.719 212H202.156L224.219 276H209.719L193.688 226.625H193.188L177.125 276ZM176.219 250.844H210.469V261.406H176.219V250.844ZM285.453 212V276H273.766L245.922 235.719H245.453V276H231.922V212H243.797L271.422 252.25H271.984V212H285.453ZM319.32 276H296.633V212H319.508C325.945 212 331.487 213.281 336.133 215.844C340.779 218.385 344.352 222.042 346.852 226.812C349.372 231.583 350.633 237.292 350.633 243.937C350.633 250.604 349.372 256.333 346.852 261.125C344.352 265.917 340.758 269.594 336.07 272.156C331.404 274.719 325.82 276 319.32 276ZM310.164 264.406H318.758C322.758 264.406 326.122 263.698 328.852 262.281C331.602 260.844 333.664 258.625 335.039 255.625C336.435 252.604 337.133 248.708 337.133 243.937C337.133 239.208 336.435 235.344 335.039 232.344C333.664 229.344 331.612 227.135 328.883 225.719C326.154 224.302 322.789 223.594 318.789 223.594H310.164V264.406Z" fill="white"/>
<path d="M151.161 340V303.636H158.849V333.661H174.438V340H151.161ZM186.725 340H178.487L191.04 303.636H200.947L213.483 340H205.244L196.136 311.946H195.852L186.725 340ZM186.21 325.707H205.67V331.708H186.21V325.707ZM217.86 340V303.636H232.419C235.095 303.636 237.326 304.033 239.113 304.826C240.901 305.619 242.244 306.72 243.144 308.129C244.043 309.525 244.493 311.135 244.493 312.958C244.493 314.379 244.209 315.627 243.641 316.705C243.073 317.77 242.292 318.646 241.297 319.332C240.315 320.007 239.19 320.487 237.924 320.771V321.126C239.309 321.185 240.605 321.576 241.812 322.298C243.031 323.02 244.02 324.032 244.777 325.334C245.535 326.624 245.914 328.163 245.914 329.95C245.914 331.88 245.434 333.602 244.475 335.117C243.529 336.621 242.126 337.81 240.267 338.686C238.409 339.562 236.118 340 233.396 340H217.86ZM225.548 333.714H231.816C233.958 333.714 235.521 333.306 236.503 332.489C237.486 331.661 237.977 330.56 237.977 329.187C237.977 328.181 237.734 327.293 237.249 326.523C236.764 325.754 236.071 325.15 235.172 324.712C234.284 324.274 233.224 324.055 231.993 324.055H225.548V333.714ZM225.548 318.853H231.248C232.301 318.853 233.236 318.67 234.053 318.303C234.882 317.924 235.533 317.391 236.006 316.705C236.491 316.018 236.734 315.195 236.734 314.237C236.734 312.923 236.266 311.863 235.331 311.058C234.408 310.253 233.094 309.851 231.39 309.851H225.548V318.853Z" fill="white"/>
</svg>
